<?xml version="1.0" encoding="UTF-8" standalone="no"?>
<!-- Created with Inkscape (http://www.inkscape.org/) -->

<svg
   xmlns:dc="http://purl.org/dc/elements/1.1/"
   xmlns:cc="http://creativecommons.org/ns#"
   xmlns:rdf="http://www.w3.org/1999/02/22-rdf-syntax-ns#"
   xmlns:svg="http://www.w3.org/2000/svg"
   xmlns="http://www.w3.org/2000/svg"
   xmlns:sodipodi="http://sodipodi.sourceforge.net/DTD/sodipodi-0.dtd"
   xmlns:inkscape="http://www.inkscape.org/namespaces/inkscape"
   width="128"
   height="128"
   id="svg3123"
   version="1.1"
   inkscape:version="0.48.2 r9819"
   sodipodi:docname="iconh_medium.svg"
   inkscape:export-filename="iconh_medium.png"
   inkscape:export-xdpi="90"
   inkscape:export-ydpi="90">
  <defs
     id="defs3125" />
  <sodipodi:namedview
     id="base"
     pagecolor="#000000"
     bordercolor="#666666"
     borderopacity="1.0"
     inkscape:pageopacity="0"
     inkscape:pageshadow="2"
     inkscape:zoom="3.959798"
     inkscape:cx="37.57031"
     inkscape:cy="59.15514"
     inkscape:document-units="px"
     inkscape:current-layer="layer1"
     showgrid="false"
     inkscape:window-width="1920"
     inkscape:window-height="1026"
     inkscape:window-x="0"
     inkscape:window-y="26"
     inkscape:window-maximized="1" />
  <metadata
     id="metadata3128">
    <rdf:RDF>
      <cc:Work
         rdf:about="">
        <dc:format>image/svg+xml</dc:format>
        <dc:type
           rdf:resource="http://purl.org/dc/dcmitype/StillImage" />
        <dc:title></dc:title>
      </cc:Work>
    </rdf:RDF>
  </metadata>
  <g
     inkscape:label="Layer 1"
     inkscape:groupmode="layer"
     id="layer1"
     transform="translate(0,-924.36218)">
    <g
       id="g3930"
       transform="matrix(0.85,0,0,0.85,-188.57358,807.1797)"
       inkscape:export-filename="/home/zack/g3934-0-1.png"
       inkscape:export-xdpi="90"
       inkscape:export-ydpi="90">
      <path
         inkscape:connector-curvature="0"
         id="path3758"
         d="m 313.17661,142.45273 0,91.84375 c -4.5159,-3.28118 -10.08464,-5.21875 -16.09375,-5.21875 -15.12631,0 -27.375,12.24869 -27.375,27.375 0,15.12631 12.24869,27.40625 27.375,27.40625 15.12631,0 27.40625,-12.27994 27.40625,-27.40625 0,-0.3887 -0.0152,-0.77149 -0.0312,-1.15625 l 0.125,0 0,-112.84375 -11.40625,0 z m -4.3125,104.21875 c 4.0864,-0.0336 7.03776,0.83789 7.9375,2.65625 1.79947,3.63672 -5.3907,9.63566 -16.0625,13.375 -10.6718,3.73934 -20.76303,3.82422 -22.5625,0.1875 -1.79947,-3.63672 5.3907,-9.63566 16.0625,-13.375 5.3359,-1.86967 10.5386,-2.81012 14.625,-2.84375 z"
         style="fill:#729fcf;fill-opacity:1;stroke:none" />
      <path
         id="path3843"
         d="m 283.59375,240.1875 c -3.86168,3.21845 -6.6726,7.73062 -7.4375,12.71875 2.60249,-2.30249 5.50052,-4.22733 8.5625,-5.84375 -0.68285,-2.19216 -1.07687,-4.49358 -1.125,-6.875 z M 308.125,266.25 c -4.68738,2.18229 -9.72617,3.67024 -14.75,4.65625 -3.7932,0.47146 -7.65264,0.55666 -11.46875,0.375 7.23796,7.80696 20.42727,8.57921 28.5,1.625 2.06712,-1.72444 3.98245,-3.93688 5.375,-6.375 -0.87246,0.0707 -1.76364,0.125 -2.65625,0.125 -1.70432,0 -3.37462,-0.15353 -5,-0.40625 z"
         style="fill:#3465a4;fill-opacity:1;stroke:none"
         inkscape:connector-curvature="0" />
    </g>
  </g>
</svg>
