<?xml version="1.0" encoding="UTF-8" standalone="no"?>
<!-- Created with Inkscape (http://www.inkscape.org/) -->

<svg
   xmlns:dc="http://purl.org/dc/elements/1.1/"
   xmlns:cc="http://creativecommons.org/ns#"
   xmlns:rdf="http://www.w3.org/1999/02/22-rdf-syntax-ns#"
   xmlns:svg="http://www.w3.org/2000/svg"
   xmlns="http://www.w3.org/2000/svg"
   xmlns:sodipodi="http://sodipodi.sourceforge.net/DTD/sodipodi-0.dtd"
   xmlns:inkscape="http://www.inkscape.org/namespaces/inkscape"
   width="128"
   height="128"
   id="svg3123"
   version="1.1"
   inkscape:version="0.48.2 r9819"
   sodipodi:docname="New document 5">
  <defs
     id="defs3125" />
  <sodipodi:namedview
     id="base"
     pagecolor="#000000"
     bordercolor="#666666"
     borderopacity="1.0"
     inkscape:pageopacity="0"
     inkscape:pageshadow="2"
     inkscape:zoom="3.959798"
     inkscape:cx="37.57031"
     inkscape:cy="59.15514"
     inkscape:document-units="px"
     inkscape:current-layer="layer1"
     showgrid="false"
     inkscape:window-width="1920"
     inkscape:window-height="1026"
     inkscape:window-x="0"
     inkscape:window-y="26"
     inkscape:window-maximized="1" />
  <metadata
     id="metadata3128">
    <rdf:RDF>
      <cc:Work
         rdf:about="">
        <dc:format>image/svg+xml</dc:format>
        <dc:type
           rdf:resource="http://purl.org/dc/dcmitype/StillImage" />
        <dc:title></dc:title>
      </cc:Work>
    </rdf:RDF>
  </metadata>
  <g
     inkscape:label="Layer 1"
     inkscape:groupmode="layer"
     id="layer1"
     transform="translate(0,-924.36218)">
    <g
       id="g3922"
       transform="matrix(0.85,0,0,0.85,-25.987665,810.38016)"
       inkscape:export-filename="/home/zack/g3934-0-1.png"
       inkscape:export-xdpi="90"
       inkscape:export-ydpi="90">
      <path
         sodipodi:nodetypes="ccssssccccsccccc"
         inkscape:connector-curvature="0"
         id="path3758-7"
         d="m 104.9375,138.6875 0,91.84375 c -4.5159,-3.28118 -10.08464,-5.21875 -16.09375,-5.21875 -15.12631,0 -27.375,12.24869 -27.375,27.375 0,15.12631 12.24869,27.40625 27.375,27.40625 15.12631,0 27.40625,-12.27994 27.40625,-27.40625 0,-0.3887 -0.0152,-0.77149 -0.0312,-1.15625 l 0.125,0 0,-67.28125 1.7e-4,-0.0625 c 9.0685,2.68712 14.99911,8.934 20.46858,16.4375 5.68289,7.79628 11.99532,20.1643 -1.1875,49.15625 15.97026,-22.7766 21.10513,-34.85269 4.03125,-63.03125 -11.85249,-19.49334 -20.80576,-29.74159 -23.31233,-47.99342 -2.06509,-0.0303 -11.40647,-0.0691 -11.40647,-0.0691 z"
         style="fill:#fcaf3e;fill-opacity:1;stroke:none" />
      <path
         id="path3839"
         d="m 74.25,237.40625 c -3.62206,3.45217 -6.079787,8.12596 -6.5,13.1875 -1.323039,10.52123 6.62045,21.12067 17.0625,22.90625 9.817025,2.2265 20.29687,-3.93679 23.90625,-13.1875 -3.32962,1.83288 -7.17493,2.875 -11.25,2.875 -12.831513,0 -23.21875,-10.36322 -23.21875,-23.125 0,-0.77619 0.04983,-1.52472 0.125,-2.28125 -0.03822,-0.0759 -0.08753,-0.14219 -0.125,-0.21875 -0.0081,-0.0519 0.0058,-0.10539 0,-0.15625 z"
         style="fill:#f57900;fill-opacity:1;stroke:none"
         inkscape:connector-curvature="0" />
    </g>
  </g>
</svg>
