<?xml version="1.0" encoding="UTF-8" standalone="no"?>
<!-- Created with Inkscape (http://www.inkscape.org/) -->

<svg
   xmlns:dc="http://purl.org/dc/elements/1.1/"
   xmlns:cc="http://creativecommons.org/ns#"
   xmlns:rdf="http://www.w3.org/1999/02/22-rdf-syntax-ns#"
   xmlns:svg="http://www.w3.org/2000/svg"
   xmlns="http://www.w3.org/2000/svg"
   xmlns:sodipodi="http://sodipodi.sourceforge.net/DTD/sodipodi-0.dtd"
   xmlns:inkscape="http://www.inkscape.org/namespaces/inkscape"
   width="256"
   height="256"
   id="svg2"
   version="1.1"
   inkscape:version="0.48.2 r9819"
   sodipodi:docname="icon_blue.svg"
   inkscape:export-filename="icon_blue.png"
   inkscape:export-xdpi="90"
   inkscape:export-ydpi="90">
  <defs
     id="defs4" />
  <sodipodi:namedview
     id="base"
     pagecolor="#000000"
     bordercolor="#666666"
     borderopacity="1.0"
     inkscape:pageopacity="0"
     inkscape:pageshadow="2"
     inkscape:zoom="2.8"
     inkscape:cx="155.4723"
     inkscape:cy="131.08875"
     inkscape:document-units="px"
     inkscape:current-layer="layer1"
     showgrid="false"
     showguides="true"
     inkscape:guide-bbox="true"
     inkscape:window-width="1920"
     inkscape:window-height="1026"
     inkscape:window-x="0"
     inkscape:window-y="26"
     inkscape:window-maximized="1" />
  <metadata
     id="metadata7">
    <rdf:RDF>
      <cc:Work
         rdf:about="">
        <dc:format>image/svg+xml</dc:format>
        <dc:type
           rdf:resource="http://purl.org/dc/dcmitype/StillImage" />
        <dc:title></dc:title>
      </cc:Work>
    </rdf:RDF>
  </metadata>
  <g
     inkscape:label="Layer 1"
     inkscape:groupmode="layer"
     id="layer1">
    <path
       style="fill:#729fcf;stroke:#204a87;stroke-width:5;stroke-linecap:butt;stroke-linejoin:miter;stroke-miterlimit:4;stroke-opacity:1;stroke-dasharray:none"
       d="M 72.565071,13.515514 C 48.199845,0.71849627 -11.439062,86.550004 8.8669707,106.73921 c 28.9921553,15.68135 70.0029423,20.1558 94.9422093,17.56017 19.55962,-2.4973 23.90628,-8.98847 19.46949,-30.727712 C 117.97869,69.625332 98.975555,34.818985 72.565071,13.515514 z"
       id="path2989-1"
       inkscape:connector-curvature="0"
       sodipodi:nodetypes="ccccc" />
    <path
       style="fill:#729fcf;stroke:#204a87;stroke-width:5;stroke-linecap:butt;stroke-linejoin:miter;stroke-miterlimit:4;stroke-opacity:1;stroke-dasharray:none"
       d="m 71.326915,222.96771 c 3.17988,27.33709 107.693895,28.15595 112.907525,0 -3.40875,-32.78459 -22.85107,-69.17005 -39.06399,-88.29716 -13.09672,-14.74081 -20.90846,-14.66763 -36.35471,1.26012 -16.781584,17.88562 -34.799099,53.21223 -37.488825,87.03704 z"
       id="path2989"
       inkscape:connector-curvature="0"
       sodipodi:nodetypes="ccccc" />
    <path
       style="fill:#729fcf;stroke:#204a87;stroke-width:5;stroke-linecap:butt;stroke-linejoin:miter;stroke-miterlimit:4;stroke-opacity:1;stroke-dasharray:none"
       d="m 183.43493,13.51551 c 24.36523,-12.79701727 84.00413,73.03449 63.6981,93.2237 -28.99215,15.68135 -70.00295,20.1558 -94.94221,17.56017 -19.55963,-2.4973 -23.90628,-8.98847 -19.46949,-30.727715 5.29998,-23.946337 24.30311,-58.752683 50.7136,-80.056155 z"
       id="path2989-1-8"
       inkscape:connector-curvature="0"
       sodipodi:nodetypes="ccccc" />
    <path
       style="fill:#729fcf;stroke:#204a87;stroke-width:5;stroke-linecap:butt;stroke-linejoin:miter;stroke-miterlimit:4;stroke-opacity:1;stroke-dasharray:none"
       d="m 166.36507,132.80549 c 39.82809,18.21133 50.03604,43.51159 71.02078,79.75795 -11.57943,16.32974 -11.70236,17.60839 -28.28427,8.33376 -6.88021,-41.51145 -18.71315,-55.8877 -49.10335,-81.2885 l -9.73804,-9.3159 z"
       id="path3827"
       inkscape:connector-curvature="0"
       sodipodi:nodetypes="cccccc" />
    <path
       style="fill:#3465a4;fill-opacity:1;stroke:none"
       d="M 48.09421,31.566034 C 32.531343,46.737371 19.704937,65.400578 13.717456,86.477295 c -1.016794,4.238792 -1.795276,9.071806 -0.252538,13.258252 1.402375,2.334353 4.769552,2.534633 6.936038,3.938493 18.842168,7.85333 39.14652,12.17903 59.465663,13.19619 9.007555,-0.0885 18.095519,0.14538 27.021621,-0.89332 3.88173,-0.85558 9.59945,-2.04916 9.89634,-6.9448 C 75.048144,37.306778 26.448136,86.704243 48.09421,31.566034 z"
       id="path3884"
       inkscape:connector-curvature="0"
       sodipodi:nodetypes="cccccccc" />
    <path
       style="fill:#3465a4;fill-opacity:1;stroke:none"
       d="m 161.88459,48.844509 c -7.55111,11.017693 -13.64451,23.057282 -18.28361,35.549346 -2.61507,7.940819 -5.1512,16.292375 -4.46677,24.764525 0.58372,5.10682 6.62642,6.04482 10.7013,6.88166 10.3521,1.66914 21.10275,0.62699 31.59576,0.34635 16.19313,-1.03651 32.25471,-4.68609 47.48025,-10.00593 4.59403,-1.98737 9.8668,-3.31789 13.62127,-6.755399 2.24974,-5.540742 0.006,-11.804819 -1.54679,-17.251511 -25.89063,-69.135284 -91.40646,61.36941 -79.10141,-33.529041 z"
       id="path3886"
       inkscape:connector-curvature="0"
       sodipodi:nodetypes="ccccccccc" />
    <path
       style="fill:#3465a4;fill-opacity:1;stroke:none"
       d="m 127.5648,131.76054 c -6.90169,2.24466 -11.80228,8.16363 -16.45268,13.47391 -12.896885,16.29076 -22.100239,35.36799 -27.851975,55.1849 -1.789757,7.33756 -3.841275,14.84873 -3.86699,22.44432 2.59356,4.37537 7.915872,6.32843 12.516421,8.03387 18.635634,5.97091 38.647954,6.03792 57.871354,3.32411 9.12351,-1.8135 19.17494,-3.68753 25.89239,-10.6635 1.48039,-1.93974 -0.2354,-4.7445 -0.18393,-6.95264 -40.24135,26.22028 -77.833169,19.88468 -45.05196,-84.29254 -0.88403,-0.44368 -1.87826,-0.73696 -2.87263,-0.55243 z"
       id="path3888"
       inkscape:connector-curvature="0"
       sodipodi:nodetypes="cccccccccc" />
    <path
       style="fill:#3465a4;fill-opacity:1;stroke:none"
       d="m 189.87859,157.14062 c 14.69774,15.55595 22.105,36.37728 25.78954,57.10895 0.28833,2.8535 3.98293,3.02093 6.07762,4.21047 1.82669,0.72683 2.73757,-2.36256 4.08796,-3.25143 0.91433,-1.43236 3.3367,-2.83695 1.43631,-4.57725 -8.95214,-15.54883 -17.23636,-31.72526 -29.01032,-45.4253 -2.95069,-3.26883 -6.04829,-6.39192 -9.42283,-9.18608 0.34724,0.37355 0.69448,0.7471 1.04172,1.12064 z m 32.78261,61.54039 c -0.0217,0.0291 0.0523,0.0164 0,0 z"
       id="path3890"
       inkscape:connector-curvature="0" />
  </g>
</svg>
