<?xml version="1.0" encoding="UTF-8" standalone="no"?>
<!-- Created with Inkscape (http://www.inkscape.org/) -->

<svg
   xmlns:dc="http://purl.org/dc/elements/1.1/"
   xmlns:cc="http://creativecommons.org/ns#"
   xmlns:rdf="http://www.w3.org/1999/02/22-rdf-syntax-ns#"
   xmlns:svg="http://www.w3.org/2000/svg"
   xmlns="http://www.w3.org/2000/svg"
   xmlns:sodipodi="http://sodipodi.sourceforge.net/DTD/sodipodi-0.dtd"
   xmlns:inkscape="http://www.inkscape.org/namespaces/inkscape"
   width="256"
   height="256"
   id="svg2"
   version="1.1"
   inkscape:version="0.48.2 r9819"
   sodipodi:docname="icon_red.svg"
   inkscape:export-filename="icon_red.png"
   inkscape:export-xdpi="90"
   inkscape:export-ydpi="90">
  <defs
     id="defs4" />
  <sodipodi:namedview
     id="base"
     pagecolor="#000000"
     bordercolor="#666666"
     borderopacity="1.0"
     inkscape:pageopacity="0"
     inkscape:pageshadow="2"
     inkscape:zoom="1.4"
     inkscape:cx="160.72772"
     inkscape:cy="102.55957"
     inkscape:document-units="px"
     inkscape:current-layer="layer1"
     showgrid="false"
     inkscape:window-width="1920"
     inkscape:window-height="1026"
     inkscape:window-x="0"
     inkscape:window-y="26"
     inkscape:window-maximized="1" />
  <metadata
     id="metadata7">
    <rdf:RDF>
      <cc:Work
         rdf:about="">
        <dc:format>image/svg+xml</dc:format>
        <dc:type
           rdf:resource="http://purl.org/dc/dcmitype/StillImage" />
        <dc:title></dc:title>
      </cc:Work>
    </rdf:RDF>
  </metadata>
  <g
     inkscape:label="Layer 1"
     inkscape:groupmode="layer"
     id="layer1">
    <path
       style="fill:#ef2929;fill-opacity:1;stroke:#a40000;stroke-width:6.76700000000000035;stroke-linejoin:round;stroke-miterlimit:4;stroke-dasharray:none;stroke-dashoffset:0"
       d="M 128 4.25 C 115.98368 4.25 106.25 13.983682 106.25 26 C 106.25 35.283583 112.06423 43.219042 120.25 46.34375 L 120.25 100.03125 C 110.21986 102.80538 102.36589 110.83648 99.84375 120.96875 L 46.59375 120.96875 C 43.667855 112.40717 35.55271 106.25 26 106.25 C 13.983682 106.25 4.25 115.98368 4.25 128 C 4.25 140.01632 13.983682 149.75 26 149.75 C 35.55271 149.75 43.667855 143.59283 46.59375 135.03125 L 99.84375 135.03125 C 102.36589 145.16352 110.21986 153.19462 120.25 155.96875 L 120.25 209.65625 C 112.06423 212.78096 106.25 220.71642 106.25 230 C 106.25 242.01632 115.98368 251.75 128 251.75 C 140.01632 251.75 149.75 242.01632 149.75 230 C 149.75 220.71642 143.93577 212.78096 135.75 209.65625 L 135.75 155.96875 C 145.78014 153.19462 153.63411 145.16352 156.15625 135.03125 L 209.40625 135.03125 C 212.33214 143.59283 220.44729 149.75 230 149.75 C 242.01632 149.75 251.75 140.01632 251.75 128 C 251.75 115.98368 242.01632 106.25 230 106.25 C 220.44729 106.25 212.33214 112.40717 209.40625 120.96875 L 156.15625 120.96875 C 153.63411 110.83648 145.78014 102.80538 135.75 100.03125 L 135.75 46.34375 C 143.93577 43.219042 149.75 35.283583 149.75 26 C 149.75 13.983682 140.01632 4.25 128 4.25 z "
       id="path2985" />
    <path
       style="fill:#cc0000;fill-opacity:1;stroke:none"
       d="m 24.200103,114.08525 c -1.468359,-1.61762 -6.679827,-3.60938 -12.892061,5.59385 -3.2356236,5.48482 -2.9140636,12.77221 0.790322,17.9594 3.847177,5.88037 11.657878,8.66746 18.35152,6.69098 5.999071,-1.62827 10.99538,-6.77949 12.020489,-13.0167 1.650067,-6.89731 -5.24284,3.09608 -11.413333,-0.29539 -6.114843,-4.04475 -4.116828,-13.69217 -6.856937,-16.93214 z"
       id="path2989"
       inkscape:connector-curvature="0"
       sodipodi:nodetypes="ccccccc" />
    <path
       style="fill:#cc0000;fill-opacity:1;stroke:none"
       d="m 110.56029,112.64652 c -2.28172,2.52436 -4.01516,5.53901 -4.93836,8.88027 -2.49288,8.47172 0.29131,18.149 7.04199,23.93515 7.10865,6.48639 18.38385,7.77914 26.69642,2.79018 4.83391,-2.72237 8.61118,-7.23149 10.52379,-12.40752 8.42187,-27.04273 -20.67836,21.78867 -26.5987,-20.91858 -0.53463,-9.67576 -3.97348,-10.99271 -12.72514,-2.2795 z"
       id="path2993"
       inkscape:connector-curvature="0"
       sodipodi:nodetypes="ccccccc" />
    <path
       style="fill:#cc0000;fill-opacity:1;stroke:none"
       d="m 114.39471,220.22824 c -1.79266,2.45061 -2.92786,5.37374 -3.08124,8.47031 -0.93142,9.07997 6.84857,17.9497 15.95982,18.05804 5.36395,0.305 10.56732,-2.34007 13.88305,-6.44839 2.32822,-2.88475 3.72573,-6.49095 3.59463,-10.30385 -23.82362,14.52578 -20.60097,-20.63556 -30.35626,-9.77611 z"
       id="path2997"
       inkscape:connector-curvature="0"
       sodipodi:nodetypes="cccscc" />
    <path
       style="fill:#cc0000;fill-opacity:1;stroke:none"
       d="m 126.71189,9.3184301 c -4.33885,-0.018029 -8.39753,2.4172769 -11.26951,5.5242719 -5.64534,5.923385 -5.61249,16.105518 -0.17362,22.120762 3.72828,4.495292 9.9325,6.703809 15.68104,5.563731 3.12889,-0.456528 6.01293,-1.938361 8.33115,-4.058451 5.55072,-5.661972 -8.34956,-8.274586 -11.68518,-12.427554 -8.85705,-10.80226 5.49642,-16.6803975 -0.88388,-16.7227599 z"
       id="path3022"
       inkscape:connector-curvature="0"
       sodipodi:nodetypes="ccccccc" />
    <path
       style="fill:#cc0000;fill-opacity:1;stroke:none"
       d="m 213.44296,124.83884 c -0.077,3.31756 -0.53672,6.8441 1.14431,9.86477 2.67093,6.2494 9.33564,10.61243 16.17823,10.08575 7.90232,-0.1457 14.918,-6.65281 15.9099,-14.44992 1.20333,-7.49197 0.38585,1.7836 -17.33513,0.54828 -10.77877,-0.35341 -14.5493,-12.23109 -15.89731,-6.04888 z"
       id="path3024"
       inkscape:connector-curvature="0"
       sodipodi:nodetypes="cccccc" />
  </g>
</svg>
